<?xml version="1.0" encoding="utf-8"?>
<!-- Generator: Adobe Illustrator 16.0.0, SVG Export Plug-In . SVG Version: 6.00 Build 0)  -->
<!DOCTYPE svg PUBLIC "-//W3C//DTD SVG 1.1//EN" "http://www.w3.org/Graphics/SVG/1.1/DTD/svg11.dtd">
<svg version="1.1" id="Layer_1" xmlns="http://www.w3.org/2000/svg" xmlns:xlink="http://www.w3.org/1999/xlink" x="0px" y="0px"
	 width="26px" height="26px" viewBox="0 0 26 26" enable-background="new 0 0 26 26" xml:space="preserve">
<g>
	<path fill="#FFFFFF" d="M5.364,22.653c-0.119-0.611-0.169-1.225-0.102-1.846c0.022-0.167-0.135-0.277-0.303-0.226
		c-0.253,0.076-0.504,0.165-0.761,0.226c-0.482,0.11-0.759,0.006-1.028-0.408c-0.211-0.325-0.471-0.606-0.762-0.868
		C2.145,19.292,1.929,19,1.697,18.728c-0.333-0.395-0.679-0.779-0.994-1.188c-0.374-0.491-0.61-1.043-0.614-1.672
		c0-0.545,0.219-1.009,0.512-1.451c0.295-0.448,0.605-0.885,0.867-1.351c0.215-0.385,0.37-0.802,0.549-1.204
		c0.313-0.702,0.739-1.342,1.159-1.984c0.185-0.289,0.475-0.451,0.781-0.593c0.19-0.09,0.381-0.198,0.575-0.286
		c0.07-0.034,0.154-0.042,0.238-0.052c0.389-0.058,0.113-0.35-0.013-0.727C4.7,8.045,4.708,7.898,4.803,7.708
		c0.046-0.031,0.111-0.234,0.133-0.287C5.122,7,4.99,6.53,5.064,6.079c0.065-0.717,0.403-1.412,0.55-2.119
		c0.173-0.818,0.687-1.355,1.497-1.598C7.36,2.288,7.606,2.295,7.849,2.393c0.038,0.014,0.091,0.007,0.125-0.01
		c0.252-0.125,0.497-0.068,0.743,0.031c0.817,0.321,1.093,1.044,1.312,1.804c0.156,0.536,0.172,1.081,0.124,1.632
		c-0.036,0.426-0.057,0.853-0.068,1.284c0.168,0.587,0.324,0.875,0.285,1.265c-0.055,0.411-0.201,0.866-0.028,0.826
		c0.438-0.102,0.806,0.07,1.124,0.335c0.38,0.313,0.742,0.652,1.085,1.006c0.521,0.536,1.098,0.989,1.708,1.411
		c0.573,0.396,1.107,0.842,1.642,1.28c0.273,0.227,0.481,0.516,0.646,0.838c0.205,0.403,0.201,0.804-0.01,1.2
		c-0.071,0.135-0.141,0.272-0.239,0.396c-0.384,0.479-0.649,1.024-0.884,1.591c-0.301,0.708-0.708,1.352-1.231,1.915
		c-0.316,0.337-0.703,0.438-1.145,0.232c-0.184-0.083-0.375-0.157-0.563-0.232c-0.071-0.026-0.141-0.039-0.215-0.061
		c-0.108-0.027-0.156,0.015-0.156,0.128c-0.003,0.255,0.082,0.485,0.202,0.7c0.137,0.239,0.299,0.466,0.423,0.705
		c0.094,0.178,0.141,0.371,0.215,0.555c0.228,0.586,0.091,1.186,0.055,1.775C12.957,23.732,5.625,24.01,5.364,22.653z M11.142,12.21
		c-0.026,0.169-0.036,0.321-0.068,0.468c-0.094,0.451-0.339,0.824-0.625,1.168c-0.236,0.285-0.311,0.607-0.262,0.965
		c0.023,0.205,0.05,0.407,0.067,0.61c0.037,0.39,0.14,0.755,0.341,1.095c0.299,0.507,0.743,0.869,1.187,1.232
		c0.021,0.018,0.071,0.023,0.094,0.01c0.377-0.188,0.773-0.188,1.174-0.126c0.097,0.014,0.154-0.006,0.198-0.081
		c0.411-0.67,0.827-1.334,1.141-2.058c0.241-0.558,0.155-0.986-0.287-1.405c-0.181-0.181-0.385-0.34-0.591-0.491
		c-0.653-0.484-1.386-0.841-2.087-1.235C11.329,12.305,11.234,12.261,11.142,12.21z M4.038,12.706
		c-0.169,0.151-0.3,0.281-0.443,0.394c-0.592,0.458-0.974,1.059-1.236,1.745c-0.183,0.481-0.254,0.979-0.146,1.494
		c0.084,0.388,0.264,0.733,0.51,1.041c0.351,0.438,0.703,0.867,0.954,1.376c0.017,0.032,0.041,0.061,0.063,0.09
		c0.209,0.286,0.411,0.347,0.737,0.216c0.089-0.034,0.177-0.068,0.255-0.111c0.039-0.03,0.082-0.084,0.087-0.123
		c0.046-0.624,0.104-1.25,0.127-1.879c0.019-0.512-0.018-1.023-0.005-1.538c0.01-0.377-0.107-0.68-0.394-0.926
		c-0.394-0.344-0.533-0.793-0.511-1.305C4.041,13.036,4.038,12.889,4.038,12.706z"/>
</g>
<g>
	<path fill="#FFFFFF" d="M12.934,22.673c0.317-0.73,0.359-1.437,0.192-2.186c-0.096-0.432-0.171-0.865-0.225-1.298
		c-0.094-0.727-0.132-1.456-0.254-2.176c-0.159-0.946-0.471-1.851-0.921-2.713c-0.465-0.893-0.258-1.763,0.189-2.609
		c0.069-0.128,0.156-0.265,0.169-0.406c0.061-0.608,0.061-1.219-0.166-1.804c-0.813-2.113-0.927-4.281-0.545-6.495
		c0.035-0.21,0.136-0.259,0.313-0.27c0.382-0.022,0.762-0.055,1.143-0.072c1.95-0.082,3.862,0.115,5.689,0.85
		c0.137,0.052,0.286,0.118,0.382,0.224c0.662,0.707,1.305,1.432,1.96,2.144c0.106,0.111,0.227,0.232,0.361,0.293
		c1.702,0.77,3.321,1.681,4.855,2.738c0,0.104,0,0.201,0,0.301c-0.305,0.648-0.869,0.998-1.481,1.285
		c-1.475,0.691-3.038,1.122-4.605,1.533c-0.146,0.035-0.299,0.121-0.405,0.224c-0.928,0.875-1.372,1.992-1.58,3.227
		c-0.052,0.324,0.007,0.549,0.234,0.798c0.77,0.85,1.412,1.791,1.92,2.817c0.41,0.829,0.808,1.687,0.85,2.606
		C21.133,24.363,12.041,24.753,12.934,22.673z M18.948,9.685c1.459-0.068,2.87-0.148,4.271-0.479
		c-0.513-0.664-2.034-1.725-3.006-2.077c-0.709-0.257-1.286-0.678-1.749-1.264C18.434,5.826,18.39,5.8,18.352,5.766
		C18.316,5.779,18.287,5.79,18.251,5.8C18.484,7.083,18.712,8.362,18.948,9.685z M12.947,4.544c0.117,0.738,0.236,1.479,0.354,2.214
		c0.042,0.251,0.035,0.529,0.146,0.749c0.246,0.491,0.55,0.952,0.838,1.419c0.042,0.073,0.116,0.124,0.175,0.187
		c0.036-0.023,0.073-0.049,0.108-0.073c-0.233-0.44-0.47-0.88-0.7-1.327c-0.09-0.182-0.192-0.373-0.242-0.568
		c-0.237-1.009,0.065-1.893,0.649-2.706c0.056-0.083,0.113-0.166,0.168-0.244C13.932,4.316,13.438,4.431,12.947,4.544z"/>
</g>
</svg>
